# xmcd
#
# Track frame offsets: 
#        150
#        12622
#        30472
#        48950
#        62266
#        77640
#        97505
#        114519
#        124668
#        138076
#        153890
#        161761
#        178974
#        200144
#        219328
#        244800
#        261668
#        281479
#        302100
#        319009
#        336439
#        353550
#
# Disc length: 4914 seconds
#
# Revision: 0
# Processed by: cddbd v1.5.2PL0 Copyright (c) Steve Scherf et al.
# Submitted via: ExactAudioCopyFreeDBPlugin 1.0
#
DISCID=35133016
DTITLE=Various Artist - Norske Country Duetter
DYEAR=2014
DGENRE=Country
TTITLE0=Elisabeth Andreassen og Lee Hazlewood - jackson
TTITLE1=Hanne sørvaag og Jill Johnson - love is never a mistake
TTITLE2=Madrugada og Ane Brun - lift me
TTITLE3=Casino Steel og Claudia Scott - cajun invitation
TTITLE4=Unni Wilhelmsen og Paal Flaata - this means u to me now
TTITLE5=Liv Marit Vedvik og Christian Ingebrigtsen - better love next 
TTITLE5=time
TTITLE6=Arne Benoni og Lynn Anderson - slow hand
TTITLE7=Lillian Askeland og Ottar 'Big Hand' Johansen - the right comb
TTITLE7=ination
TTITLE8=Bobby Bare og Petter Øien - things change
TTITLE9=Somebodys Darling - if not in heaven
TTITLE10=Rita Engebretsen og Bjøro Håland - billy boy
TTITLE11=Roy Lønhøiden og Hilde Heltberg - la meg dra dit igjen
TTITLE12=Steinar Albrigtsen og Tom Pacheco - one heart one soul
TTITLE13=Humming People og Emmylou Harris - lost men
TTITLE14=Bretteville og Johanna Demker - anymore
TTITLE15=Von og Hege Øversveen - deinn som du æ
TTITLE16=Trine Rein og Paal Flaata - not for long
TTITLE17=Rita Eriksen og Dolores Keane - the great northern ocean
TTITLE18=Jenny Jenssen og Arne Benoni - my elusive dreams
TTITLE19=Hilde Heltberg og Rita Eriksen - wayfaring stranger
TTITLE20=Vestlandsfanden og Claudia Scott - ta deg tid
TTITLE21=Lillian Askeland og Teddy Nelson - island of love
EXTD=
EXTT0=
EXTT1=
EXTT2=
EXTT3=
EXTT4=
EXTT5=
EXTT6=
EXTT7=
EXTT8=
EXTT9=
EXTT10=
EXTT11=
EXTT12=
EXTT13=
EXTT14=
EXTT15=
EXTT16=
EXTT17=
EXTT18=
EXTT19=
EXTT20=
EXTT21=
PLAYORDER=
